<svg width="22" height="20" viewBox="0 0 22 20" fill="none" xmlns="http://www.w3.org/2000/svg">
<path fill-rule="evenodd" clip-rule="evenodd" d="M11.5039 11.7814C10.1489 11.7814 9.04979 10.7688 9.04979 9.51905C9.04979 8.88586 9.33097 8.31504 9.78567 7.90381C9.9545 7.75113 9.95709 7.50118 9.79148 7.34555C9.62586 7.18991 9.35474 7.18751 9.18591 7.3402C8.57397 7.89364 8.19336 8.66504 8.19336 9.51905C8.19336 11.205 9.67603 12.571 11.5039 12.571C12.4294 12.571 13.2669 12.2201 13.8673 11.656C14.0329 11.5003 14.0303 11.2504 13.8615 11.0977C13.6927 10.945 13.4216 10.9474 13.256 11.103C12.8099 11.5222 12.19 11.7814 11.5039 11.7814Z" fill="#677185"/>
<path fill-rule="evenodd" clip-rule="evenodd" d="M4.71421 12.7875C6.09049 14.3456 8.27569 15.946 11.4296 15.946C13.5687 15.946 15.2714 15.2079 16.5773 14.2447C16.7599 14.1099 16.7887 13.8652 16.6414 13.698C16.4942 13.5308 16.2267 13.5045 16.0441 13.6393C14.8581 14.514 13.3382 15.1684 11.4296 15.1684C8.62736 15.1684 6.66111 13.7547 5.375 12.2987C4.73288 11.5717 4.26885 10.8428 3.96541 10.2951C3.81394 10.0216 3.70318 9.79459 3.63079 9.63716C3.61278 9.59799 3.59715 9.56315 3.58387 9.53301C3.61629 9.46319 3.66189 9.36809 3.72093 9.25219C3.85651 8.98604 4.06247 8.61119 4.34179 8.18122C4.90228 7.31847 5.74891 6.24823 6.90172 5.38578C7.08337 5.24988 7.11025 5.00495 6.96174 4.83871C6.81324 4.67247 6.54559 4.64788 6.36393 4.78378C5.10829 5.72317 4.20188 6.875 3.61144 7.78387C3.3153 8.23971 3.09632 8.63805 2.95083 8.92364C2.87804 9.06653 2.82352 9.18145 2.78682 9.26154C2.76847 9.30159 2.75456 9.33295 2.74505 9.35477C2.7403 9.36568 2.73664 9.37421 2.73407 9.38025L2.73104 9.38742L2.73013 9.38958L2.72983 9.3903L2.72972 9.39057C2.72967 9.39068 2.72963 9.39078 3.12674 9.52893C2.72654 9.6594 2.72661 9.65957 2.72668 9.65976L2.72687 9.66025L2.72742 9.66165L2.72918 9.66609C2.73064 9.66977 2.73269 9.67489 2.73532 9.6814C2.7406 9.69441 2.74823 9.71299 2.75826 9.73675C2.77833 9.78428 2.80801 9.8526 2.84763 9.93876C2.92684 10.111 3.04594 10.3549 3.20754 10.6466C3.53024 11.2292 4.02513 12.0074 4.71421 12.7875ZM3.12674 9.52893L2.72654 9.6594C2.69266 9.57237 2.69376 9.47714 2.72963 9.39078L3.12674 9.52893Z" fill="#677185"/>
<path fill-rule="evenodd" clip-rule="evenodd" d="M17.1239 13.0355C17.2972 13.1771 17.5636 13.1636 17.7188 13.0055C18.5338 12.1754 19.1185 11.311 19.4993 10.6559C19.69 10.3277 19.8305 10.0504 19.9239 9.85389C19.9706 9.75557 20.0055 9.67734 20.0291 9.6229C20.0409 9.59567 20.0499 9.57439 20.056 9.55951C20.0591 9.55206 20.0615 9.54622 20.0632 9.54204L20.0653 9.53701L20.0659 9.53544L20.0661 9.5349L20.0662 9.53468C20.0662 9.53459 20.0663 9.53451 19.6701 9.40358C20.064 9.26715 20.0639 9.267 20.0639 9.26682L20.0631 9.26498L20.0613 9.26063C20.0597 9.25701 20.0576 9.25196 20.0548 9.24552C20.0492 9.23265 20.0412 9.21424 20.0306 9.19065C20.0095 9.14348 19.9782 9.07559 19.9367 8.98993C19.8537 8.81867 19.7293 8.57602 19.5621 8.28572C19.2283 7.70604 18.7208 6.93159 18.0261 6.15523C16.6409 4.60712 14.4696 3.00848 11.4167 3.00848C10.0398 3.00848 8.83757 3.33525 7.80616 3.83764C7.60091 3.93762 7.5234 4.17041 7.63302 4.35759C7.74265 4.54477 7.99791 4.61546 8.20316 4.51549C9.1252 4.06637 10.1921 3.77696 11.4167 3.77696C14.1137 3.77696 16.0692 5.18375 17.3732 6.64108C18.0231 7.36743 18.5009 8.09569 18.8161 8.64305C18.9735 8.91628 19.0896 9.14322 19.166 9.30068C19.1853 9.34054 19.2021 9.37593 19.2163 9.40646C19.1986 9.44596 19.1767 9.49356 19.1506 9.54846C19.0649 9.72903 18.9338 9.98792 18.7547 10.296C18.3959 10.9134 17.848 11.7219 17.091 12.4929C16.9358 12.6511 16.9505 12.894 17.1239 13.0355ZM19.6701 9.40358L20.064 9.26715C20.0998 9.35315 20.1006 9.44802 20.0663 9.53451L19.6701 9.40358Z" fill="#677185"/>
<path fill-rule="evenodd" clip-rule="evenodd" d="M14.0923 10.3154C14.3114 10.352 14.5188 10.2054 14.5557 9.98787C14.584 9.82111 14.6001 9.64859 14.6001 9.4707C14.6001 7.76615 13.2082 6.38348 11.4905 6.38348C11.3113 6.38348 11.1375 6.39944 10.9696 6.4275C10.7505 6.46411 10.6028 6.67009 10.6397 6.88758C10.6765 7.10507 10.884 7.2517 11.1031 7.21509C11.2306 7.19379 11.3596 7.18215 11.4905 7.18215C12.7638 7.18215 13.7956 8.2071 13.7956 9.4707C13.7956 9.60066 13.7839 9.72873 13.7624 9.8553C13.7255 10.0728 13.8732 10.2788 14.0923 10.3154Z" fill="#677185"/>
<path fill-rule="evenodd" clip-rule="evenodd" d="M8.19336 9.51905C8.19336 11.2049 9.67518 12.571 11.5039 12.571C12.4302 12.571 13.267 12.2201 13.8673 11.656C14.0329 11.5003 14.0303 11.2504 13.8615 11.0977C13.6927 10.945 13.4216 10.9474 13.256 11.103C12.8099 11.5222 12.1907 11.7814 11.5039 11.7814C10.1482 11.7814 9.04979 10.7689 9.04979 9.51905C9.04979 8.88652 9.33101 8.315 9.78567 7.90381C9.9545 7.75113 9.95709 7.50118 9.79147 7.34555C9.62586 7.18991 9.35474 7.18751 9.18591 7.3402C8.57393 7.89368 8.19336 8.66582 8.19336 9.51905Z" fill="#677185"/>
<path fill-rule="evenodd" clip-rule="evenodd" d="M18.7489 16.1146C18.9118 15.9645 18.9118 15.7211 18.7489 15.5709L4.93921 2.83984C4.77635 2.6897 4.5123 2.6897 4.34944 2.83984C4.18658 2.98998 4.18658 3.2334 4.34944 3.38354L18.1591 16.1146C18.322 16.2648 18.5861 16.2648 18.7489 16.1146Z" fill="#677185"/>
</svg>
