<svg width="19" height="15" viewBox="0 0 19 15" fill="none" xmlns="http://www.w3.org/2000/svg">
<path fill-rule="evenodd" clip-rule="evenodd" d="M9.50386 9.78151C8.14887 9.78151 7.04979 8.76884 7.04979 7.51911C7.04979 6.88592 7.33097 6.3151 7.78567 5.90387C7.9545 5.75119 7.95709 5.50124 7.79148 5.34561C7.62586 5.18997 7.35474 5.18758 7.18591 5.34026C6.57397 5.8937 6.19336 6.6651 6.19336 7.51911C6.19336 9.20503 7.67603 10.571 9.50386 10.571C10.4294 10.571 11.2669 10.2202 11.8673 9.65601C12.0329 9.50038 12.0303 9.25043 11.8615 9.09775C11.6927 8.94507 11.4216 8.94746 11.256 9.1031C10.8099 9.52225 10.19 9.78151 9.50386 9.78151Z" fill="#677185"/>
<path fill-rule="evenodd" clip-rule="evenodd" d="M2.71421 10.7875C4.09049 12.3456 6.27569 13.946 9.42964 13.946C11.5687 13.946 13.2714 13.2079 14.5773 12.2447C14.7599 12.11 14.7887 11.8653 14.6414 11.6981C14.4942 11.5309 14.2267 11.5046 14.0441 11.6393C12.8581 12.5141 11.3382 13.1685 9.42964 13.1685C6.62736 13.1685 4.66111 11.7547 3.375 10.2987C2.73288 9.57177 2.26885 8.84289 1.96541 8.29512C1.81394 8.0217 1.70318 7.79465 1.63079 7.63722C1.61278 7.59805 1.59715 7.56321 1.58387 7.53307C1.61629 7.46325 1.66189 7.36816 1.72093 7.25225C1.85651 6.9861 2.06247 6.61125 2.34179 6.18128C2.90228 5.31853 3.74891 4.24829 4.90172 3.38584C5.08337 3.24994 5.11025 3.00501 4.96174 2.83877C4.81324 2.67253 4.54559 2.64794 4.36393 2.78384C3.10829 3.72323 2.20188 4.87506 1.61144 5.78393C1.3153 6.23977 1.09632 6.63811 0.950828 6.9237C0.878039 7.06659 0.823516 7.18151 0.78682 7.2616C0.768469 7.30165 0.754565 7.33301 0.745054 7.35483C0.740298 7.36574 0.73664 7.37427 0.734072 7.38031L0.731036 7.38748L0.73013 7.38964L0.729829 7.39036L0.729717 7.39063C0.729672 7.39074 0.729631 7.39084 1.12674 7.52899C0.72654 7.65946 0.726605 7.65963 0.726679 7.65982L0.726872 7.66031L0.727422 7.66171L0.729178 7.66615C0.73064 7.66984 0.732687 7.67495 0.735323 7.68146C0.740596 7.69447 0.74823 7.71305 0.758264 7.73681C0.77833 7.78434 0.808013 7.85267 0.847631 7.93882C0.926837 8.11106 1.04594 8.35497 1.20754 8.6467C1.53024 9.22923 2.02513 10.0074 2.71421 10.7875ZM1.12674 7.52899L0.72654 7.65946C0.692661 7.57243 0.693756 7.4772 0.729631 7.39084L1.12674 7.52899Z" fill="#677185"/>
<path fill-rule="evenodd" clip-rule="evenodd" d="M15.1239 11.0356C15.2972 11.1771 15.5636 11.1637 15.7188 11.0056C16.5338 10.1755 17.1185 9.31106 17.4993 8.65597C17.69 8.3278 17.8305 8.05049 17.9239 7.85395C17.9706 7.75564 18.0055 7.6774 18.0291 7.62296C18.0409 7.59573 18.0499 7.57445 18.056 7.55957C18.0591 7.55213 18.0615 7.54628 18.0632 7.5421L18.0653 7.53707L18.0659 7.5355L18.0661 7.53496L18.0662 7.53475C18.0662 7.53466 18.0663 7.53457 17.6701 7.40365C18.064 7.26721 18.0639 7.26706 18.0639 7.26688L18.0631 7.26504L18.0613 7.26069C18.0597 7.25707 18.0576 7.25202 18.0548 7.24558C18.0492 7.23271 18.0412 7.2143 18.0306 7.19071C18.0095 7.14355 17.9782 7.07565 17.9367 6.98999C17.8537 6.81873 17.7293 6.57608 17.5621 6.28578C17.2283 5.7061 16.7208 4.93165 16.0261 4.15529C14.6409 2.60718 12.4696 1.00855 9.41667 1.00855C8.03976 1.00855 6.83757 1.33531 5.80616 1.8377C5.60091 1.93768 5.5234 2.17047 5.63302 2.35765C5.74265 2.54483 5.99791 2.61552 6.20316 2.51555C7.1252 2.06643 8.19206 1.77702 9.41667 1.77702C12.1137 1.77702 14.0692 3.18381 15.3732 4.64114C16.0231 5.36749 16.5009 6.09576 16.8161 6.64311C16.9735 6.91634 17.0896 7.14328 17.166 7.30074C17.1853 7.3406 17.2021 7.37599 17.2163 7.40652C17.1986 7.44602 17.1767 7.49363 17.1506 7.54852C17.0649 7.72909 16.9338 7.98798 16.7547 8.29607C16.3959 8.91349 15.848 9.72192 15.091 10.493C14.9358 10.6511 14.9505 10.894 15.1239 11.0356ZM17.6701 7.40365L18.064 7.26721C18.0998 7.35321 18.1006 7.44808 18.0663 7.53457L17.6701 7.40365Z" fill="#677185"/>
<path fill-rule="evenodd" clip-rule="evenodd" d="M12.0923 8.31544C12.3114 8.35205 12.5188 8.20542 12.5557 7.98793C12.584 7.82117 12.6001 7.64866 12.6001 7.47076C12.6001 5.76621 11.2082 4.38354 9.49048 4.38354C9.31129 4.38354 9.13753 4.3995 8.96956 4.42756C8.7505 4.46417 8.6028 4.67016 8.63968 4.88764C8.67655 5.10513 8.88402 5.25176 9.10309 5.21516C9.23057 5.19385 9.35958 5.18221 9.49048 5.18221C10.7638 5.18221 11.7956 6.20717 11.7956 7.47076C11.7956 7.60072 11.7839 7.7288 11.7624 7.85537C11.7255 8.07285 11.8732 8.27884 12.0923 8.31544Z" fill="#677185"/>
<path fill-rule="evenodd" clip-rule="evenodd" d="M6.19336 7.51912C6.19336 9.20497 7.67518 10.571 9.50386 10.571C10.4302 10.571 11.267 10.2202 11.8673 9.65601C12.0329 9.50038 12.0303 9.25043 11.8615 9.09775C11.6927 8.94507 11.4216 8.94746 11.256 9.1031C10.8099 9.52229 10.1907 9.78151 9.50386 9.78151C8.14817 9.78151 7.04979 8.76892 7.04979 7.51912C7.04979 6.88658 7.33101 6.31506 7.78567 5.90387C7.9545 5.75119 7.95709 5.50124 7.79147 5.34561C7.62586 5.18997 7.35474 5.18758 7.18591 5.34026C6.57393 5.89374 6.19336 6.66588 6.19336 7.51912Z" fill="#677185"/>
<path fill-rule="evenodd" clip-rule="evenodd" d="M16.7489 14.1147C16.9118 13.9646 16.9118 13.7211 16.7489 13.571L2.93921 0.8399C2.77635 0.689761 2.5123 0.689761 2.34944 0.8399C2.18658 0.990039 2.18658 1.23346 2.34944 1.3836L16.1591 14.1147C16.322 14.2648 16.5861 14.2648 16.7489 14.1147Z" fill="#677185"/>
</svg>
