<svg width="22" height="24" viewBox="0 0 22 24" fill="none" xmlns="http://www.w3.org/2000/svg">
<path d="M11.3026 5.54429C12.4352 5.54429 13.8549 4.85108 14.7004 3.92681C15.4661 3.08918 16.0244 1.91939 16.0244 0.749607C16.0244 0.590747 16.0085 0.431887 15.9766 0.30191C14.7164 0.345236 13.2009 1.06733 12.2916 2.03493C11.5738 2.77146 10.9197 3.92681 10.9197 5.11104C10.9197 5.28434 10.9516 5.45764 10.9676 5.51541C11.0473 5.52985 11.175 5.54429 11.3026 5.54429ZM7.31451 23.0189C8.86188 23.0189 9.54782 22.0802 11.478 22.0802C13.4402 22.0802 13.8709 22.99 15.5937 22.99C17.2847 22.99 18.4173 21.5747 19.4861 20.1883C20.6825 18.5997 21.177 17.04 21.2089 16.9678C21.0973 16.9389 17.8589 15.7402 17.8589 12.3753C17.8589 9.45802 20.4113 8.14382 20.5549 8.04273C18.8639 5.84757 16.2956 5.7898 15.5937 5.7898C13.6954 5.7898 12.148 6.82961 11.175 6.82961C10.1221 6.82961 8.73426 5.84757 7.09118 5.84757C3.96454 5.84757 0.790039 8.18714 0.790039 12.6063C0.790039 15.3503 1.97051 18.2531 3.42216 20.1305C4.66644 21.7191 5.75119 23.0189 7.31451 23.0189Z" fill="#000100"/>
</svg>
