<svg width="26" height="24" viewBox="0 0 26 24" fill="none" xmlns="http://www.w3.org/2000/svg">
<path fill-rule="evenodd" clip-rule="evenodd" d="M25.3109 11.9186C25.3109 11.1131 25.2318 10.3387 25.0849 9.59523H13.3792V13.9889H20.0682C19.78 15.4087 18.9044 16.6117 17.588 17.4171V20.2671H21.6048C23.955 18.2896 25.3109 15.3777 25.3109 11.9186Z" fill="#4285F4"/>
<path fill-rule="evenodd" clip-rule="evenodd" d="M13.3789 23.0189C16.7347 23.0189 19.5481 22.0018 21.6045 20.267L17.5878 17.4171C16.4748 18.0986 15.0511 18.5013 13.3789 18.5013C10.1417 18.5013 7.40171 16.5032 6.42435 13.8185H2.27197V16.7614C4.31709 20.4736 8.52031 23.0189 13.3789 23.0189Z" fill="#34A853"/>
<path fill-rule="evenodd" clip-rule="evenodd" d="M6.42431 13.8185C6.17573 13.137 6.0345 12.409 6.0345 11.6604C6.0345 10.9118 6.17573 10.1838 6.42431 9.50227V6.55939H2.27193C1.43016 8.09278 0.949951 9.82754 0.949951 11.6604C0.949951 13.4932 1.43016 15.228 2.27193 16.7614L6.42431 13.8185Z" fill="#FBBC05"/>
<path fill-rule="evenodd" clip-rule="evenodd" d="M13.3789 4.81949C15.2037 4.81949 16.842 5.39258 18.1301 6.51811L21.6949 3.26028C19.5425 1.42743 16.729 0.30191 13.3789 0.30191C8.52031 0.30191 4.31709 2.84725 2.27197 6.55941L6.42435 9.50229C7.40171 6.81756 10.1417 4.81949 13.3789 4.81949Z" fill="#EA4335"/>
</svg>
